<svg width="164" height="57" viewBox="0 0 164 57" fill="none" xmlns="http://www.w3.org/2000/svg">
<path d="M23.0977 0.601074H28.4969C31.4167 0.601074 33.5182 0.867321 34.8075 1.40565C36.097 1.94423 37.1199 2.81689 37.8637 4.01755C38.6077 5.21822 38.9796 6.66034 38.9796 8.34365C38.9796 10.2067 38.4898 11.7538 37.5103 12.9856C36.5371 14.2171 35.2105 15.0774 33.5306 15.5601C32.545 15.8387 30.7533 15.9749 28.156 15.9749V27.2638H23.0977V0.601074ZM28.156 11.036H29.7864C31.0694 11.036 31.9559 10.9432 32.4581 10.7637C32.9602 10.5779 33.3509 10.2808 33.6422 9.85993C33.9273 9.43904 34.0698 8.93159 34.0698 8.33125C34.0698 7.29763 33.667 6.54265 32.8611 6.0724C32.2783 5.71959 31.1873 5.53991 29.6004 5.53991H28.156V11.036ZM42.2525 7.54539H46.5297V10.0518C46.9886 9.07407 47.5959 8.33125 48.3524 7.8238C49.1149 7.31635 49.9454 7.0625 50.8443 7.0625C51.4828 7.0625 52.1523 7.22954 52.8527 7.56995L51.3155 11.8406C50.7391 11.5496 50.2617 11.4073 49.8896 11.4073C49.1334 11.4073 48.4888 11.8776 47.9681 12.8183C47.4411 13.7591 47.1807 15.6036 47.1807 18.3514L47.1992 19.3109V27.2638H42.2525V7.54539ZM64.5937 7.0625C66.4597 7.0625 68.2139 7.52667 69.8566 8.45501C71.5056 9.38336 72.7827 10.6399 73.7062 12.2304C74.63 13.8271 75.0888 15.5416 75.0888 17.3859C75.0888 19.2428 74.6239 20.9757 73.7001 22.5909C72.7703 24.2064 71.5056 25.4688 69.9063 26.3787C68.3009 27.2886 66.5403 27.7464 64.6122 27.7464C61.7731 27.7464 59.3494 26.7439 57.347 24.7387C55.3385 22.7271 54.3344 20.2886 54.3344 17.4231C54.3344 14.3472 55.4688 11.7849 57.7376 9.73616C59.7276 7.95388 62.0088 7.0625 64.5937 7.0625ZM64.6683 11.7045C63.1245 11.7045 61.8413 12.2367 60.8186 13.3012C59.7958 14.3718 59.2812 15.7334 59.2812 17.3983C59.2812 19.1066 59.7895 20.4928 60.7999 21.5512C61.8103 22.6097 63.0935 23.1419 64.6495 23.1419C66.1994 23.1419 67.4887 22.6033 68.524 21.5328C69.5529 20.4619 70.0675 19.0818 70.0675 17.3983C70.0675 15.7086 69.5592 14.3409 68.5488 13.2825C67.5384 12.2304 66.2427 11.7045 64.6683 11.7045Z" fill="black"/>
<path d="M77.2152 3.20086V0.601362H91.8324V3.20086H85.8813V27.264H83.1661V3.20086H77.2152ZM94.9507 7.54568H97.4798V16.7488C97.4798 18.9953 97.6038 20.5366 97.8456 21.3845C98.2051 22.5912 98.9055 23.5444 99.9284 24.2437C100.951 24.9432 102.179 25.296 103.598 25.296C105.018 25.296 106.22 24.9556 107.212 24.2748C108.198 23.5876 108.886 22.6965 109.258 21.5824C109.512 20.8211 109.642 19.2119 109.642 16.7488V7.54568H112.246V17.213C112.246 19.93 111.93 21.9724 111.291 23.3464C110.659 24.7265 109.698 25.8034 108.421 26.5771C107.144 27.3569 105.545 27.7467 103.617 27.7467C101.689 27.7467 100.083 27.3569 98.794 26.5771C97.5047 25.8034 96.5376 24.7141 95.9051 23.3216C95.2668 21.9291 94.9507 19.831 94.9507 17.0336V7.54568ZM120.088 0.192871H122.617V7.54568H126.634V9.73645H122.617V27.264H120.088V9.73645H116.629V7.54568H120.088V0.192871ZM139.863 7.06279C142.906 7.06279 145.436 8.15842 147.438 10.3555C149.26 12.3544 150.172 14.7249 150.172 17.4605C150.172 20.2084 149.211 22.6099 147.283 24.6645C145.361 26.7194 142.882 27.7467 139.863 27.7467C136.825 27.7467 134.339 26.7194 132.418 24.6645C130.49 22.6099 129.529 20.2084 129.529 17.4605C129.529 14.7373 130.44 12.3731 132.263 10.374C134.265 8.16449 136.8 7.06279 139.863 7.06279ZM139.85 9.55092C137.736 9.55092 135.926 10.3244 134.407 11.8779C132.889 13.4313 132.132 15.3128 132.132 17.5162C132.132 18.9335 132.48 20.258 133.168 21.4895C133.862 22.715 134.798 23.662 135.976 24.3305C137.147 24.9989 138.443 25.333 139.85 25.333C141.257 25.333 142.553 24.9989 143.725 24.3305C144.902 23.662 145.839 22.715 146.533 21.4895C147.221 20.258 147.568 18.9335 147.568 17.5162C147.568 15.3128 146.805 13.4313 145.281 11.8779C143.762 10.3244 141.952 9.55092 139.85 9.55092ZM153.885 7.54568H156.489V10.4297C157.263 9.291 158.082 8.44922 158.943 7.89217C159.805 7.34143 160.704 7.06279 161.634 7.06279C162.34 7.06279 163.09 7.28551 163.89 7.7312L162.564 9.86021C162.03 9.63141 161.584 9.51372 161.218 9.51372C160.369 9.51372 159.551 9.86021 158.763 10.5534C157.976 11.2466 157.375 12.3299 156.96 13.7905C156.643 14.9106 156.489 17.1819 156.489 20.5984V27.264H153.885V7.54568Z" fill="#FF6600"/>
<path d="M73.4152 38.4402C73.2508 37.9019 72.9286 37.4623 72.4481 37.125C71.9644 36.7878 71.4065 36.6205 70.7679 36.6205C70.0768 36.6205 69.4723 36.8094 68.9485 37.19C68.6228 37.4253 68.3191 37.8431 68.0401 38.4402H73.4152ZM75.8796 40.3716H67.9285C68.0432 41.074 68.3501 41.6342 68.8462 42.052C69.342 42.4668 69.9774 42.6742 70.7463 42.6742C71.67 42.6742 72.4605 42.3491 73.1239 41.6992L75.2006 42.6803C74.6831 43.4168 74.0598 43.9617 73.3377 44.3174C72.6122 44.6702 71.7538 44.8467 70.7587 44.8467C69.2149 44.8467 67.9565 44.3607 66.9863 43.3859C66.016 42.414 65.5292 41.1949 65.5292 39.7309C65.5292 38.2299 66.016 36.9828 66.9863 35.9925C67.9565 34.999 69.1715 34.5037 70.6379 34.5037C72.1907 34.5037 73.4554 34.999 74.4288 35.9861C75.4022 36.9765 75.8888 38.2795 75.8888 39.9042L75.8796 40.3716Z" fill="black"/>
<path d="M54.832 34.7451H57.3057V35.7603C57.8668 35.2898 58.3782 34.9649 58.8339 34.7792C59.2895 34.5965 59.7576 34.5037 60.2349 34.5037C61.2144 34.5037 62.0483 34.8441 62.7302 35.5251C63.3038 36.1067 63.5921 36.9641 63.5921 38.0969V44.6053H61.137V40.2943C61.137 39.1181 61.0842 38.3381 60.9789 37.9544C60.8735 37.5676 60.6874 37.2736 60.4271 37.0725C60.1636 36.8712 59.8382 36.7691 59.4537 36.7691C58.9515 36.7691 58.5207 36.9364 58.1612 37.2705C57.8015 37.6048 57.5536 38.069 57.414 38.6569C57.3429 38.9664 57.3057 39.6319 57.3057 40.6563V44.6053H54.832V34.7451Z" fill="black"/>
<path d="M50.1143 34.7454H52.5879V44.6055H50.1143V34.7454Z" fill="black"/>
<path d="M51.3572 30.6973C51.7909 30.6973 52.163 30.8551 52.4731 31.1675C52.786 31.4802 52.9412 31.8578 52.9412 32.3035C52.9412 32.7429 52.786 33.1173 52.4792 33.4269C52.1723 33.7364 51.8033 33.891 51.3725 33.891C50.9324 33.891 50.5574 33.7332 50.2474 33.4176C49.9342 33.1018 49.7793 32.7181 49.7793 32.2663C49.7793 31.833 49.9342 31.4646 50.241 31.1583C50.5481 30.8519 50.92 30.6973 51.3572 30.6973Z" fill="black"/>
<path d="M45.6567 30.9385H48.1304V44.6054H45.6567V30.9385Z" fill="black"/>
<path d="M34.7546 34.7451H37.2283V35.7603C37.7894 35.2898 38.3008 34.9649 38.7565 34.7792C39.2121 34.5965 39.6802 34.5037 40.1575 34.5037C41.1371 34.5037 41.9709 34.8441 42.6528 35.5251C43.2264 36.1067 43.5147 36.9641 43.5147 38.0969V44.6053H41.0596V40.2943C41.0596 39.1181 41.0068 38.3381 40.9016 37.9544C40.7961 37.5676 40.61 37.2736 40.3497 37.0725C40.0862 36.8712 39.7608 36.7691 39.3763 36.7691C38.8741 36.7691 38.4433 36.9364 38.0838 37.2705C37.7241 37.6048 37.4762 38.069 37.3366 38.6569C37.2655 38.9664 37.2283 39.6319 37.2283 40.6563V44.6053H34.7546V34.7451Z" fill="black"/>
<path fill-rule="evenodd" clip-rule="evenodd" d="M25.6817 30.8711C29.5915 30.8711 32.7609 34.0354 32.7609 37.9389C32.7609 41.8424 29.5915 45.0068 25.6817 45.0068C21.772 45.0068 18.6025 41.8424 18.6025 37.9389C18.6025 34.0354 21.772 30.8711 25.6817 30.8711ZM25.6817 33.4181C28.1826 33.4181 30.2098 35.442 30.2098 37.9389C30.2098 40.4358 28.1826 42.4598 25.6817 42.4598C23.1808 42.4598 21.1536 40.4358 21.1536 37.9389C21.1536 35.442 23.1808 33.4181 25.6817 33.4181Z" fill="black"/>
<path d="M25.6602 40.494C27.0617 40.494 28.1979 39.3596 28.1979 37.9604C28.1979 36.5611 27.0617 35.4268 25.6602 35.4268C24.2587 35.4268 23.1226 36.5611 23.1226 37.9604C23.1226 39.3596 24.2587 40.494 25.6602 40.494Z" fill="#FF6600"/>
<path fill-rule="evenodd" clip-rule="evenodd" d="M7.64249 56.1874C2.9249 51.5381 0 45.0801 0 37.9391C0 30.8754 2.86109 24.4791 7.4893 19.8418L11.9507 24.086C8.3753 27.6184 6.15983 32.52 6.15983 37.9391C6.15983 43.4352 8.43935 48.3993 12.1049 51.9425L7.64249 56.1874ZM21.1328 43.3542C19.5861 42.0578 18.6025 40.1133 18.6025 37.9391C18.6025 35.8424 19.5172 33.9592 20.9694 32.665L22.8259 34.4309C21.8055 35.2598 21.1535 36.5232 21.1535 37.9391C21.1535 39.433 21.8793 40.7572 22.9979 41.5802L21.1328 43.3542ZM14.6106 49.5587C11.5355 46.6372 9.61881 42.5117 9.61881 37.9391C9.61881 33.4438 11.4721 29.3812 14.4565 26.4693L18.4926 30.3088C16.4591 32.2195 15.1888 34.9309 15.1888 37.9391C15.1888 41.0246 16.5248 43.7982 18.6507 45.7155L14.6106 49.5587Z" fill="#FF6600"/>
</svg>
